# xmcd
#
# Track frame offsets: 
#        150
#        12620
#        33591
#        47688
#        65436
#        78096
#        89038
#        103132
#        116061
#        129906
#        143323
#
# Disc length: 2168 seconds
#
# Revision: 0
# Processed by: cddbd v1.5.2PL0 Copyright (c) Steve Scherf et al.
# Submitted via: ExactAudioCopy v0.99pb3
#
DISCID=8f08760b
DTITLE=Therese - Ca pourrait etre pire
DYEAR=2009
DGENRE=Chanson
TTITLE0=Ca pourrait etre pire
TTITLE1=Le pion
TTITLE2=Tu traines ta vie
TTITLE3=Si c'est une fille
TTITLE4=Ceux qui se levent tard
TTITLE5=Au clair de la thune
TTITLE6=Les casseroles
TTITLE7=Des nouvelles du petit
TTITLE8=Les dessins animes
TTITLE9=La table des vieux
TTITLE10=Bonus live
EXTD=
EXTT0=
EXTT1=
EXTT2=
EXTT3=
EXTT4=
EXTT5=
EXTT6=
EXTT7=
EXTT8=
EXTT9=
EXTT10=
PLAYORDER=
